<svg width="34" height="34" viewBox="0 0 34 34" fill="none" xmlns="http://www.w3.org/2000/svg">
<path d="M0 10C0 4.47715 4.47715 0 10 0H24C29.5228 0 34 4.47715 34 10V24C34 29.5228 29.5228 34 24 34H10C4.47715 34 0 29.5228 0 24V10Z" fill="#D1F0E1"/>
<path d="M17.0007 26.1654C22.0633 26.1654 26.1673 22.0613 26.1673 16.9987C26.1673 11.9361 22.0633 7.83203 17.0007 7.83203C11.938 7.83203 7.83398 11.9361 7.83398 16.9987C7.83398 22.0613 11.938 26.1654 17.0007 26.1654Z" stroke="#17B26A" stroke-width="1.5" stroke-linecap="round" stroke-linejoin="round"/>
<path d="M13.3341 8.75H14.2508C12.4633 14.1033 12.4633 19.8967 14.2508 25.25H13.3341" stroke="#17B26A" stroke-width="1.5" stroke-linecap="round" stroke-linejoin="round"/>
<path d="M19.75 8.75C21.5375 14.1033 21.5375 19.8967 19.75 25.25" stroke="#17B26A" stroke-width="1.5" stroke-linecap="round" stroke-linejoin="round"/>
<path d="M8.75 20.6667V19.75C14.1033 21.5375 19.8967 21.5375 25.25 19.75V20.6667" stroke="#17B26A" stroke-width="1.5" stroke-linecap="round" stroke-linejoin="round"/>
<path d="M8.75 14.2508C14.1033 12.4633 19.8967 12.4633 25.25 14.2508" stroke="#17B26A" stroke-width="1.5" stroke-linecap="round" stroke-linejoin="round"/>
</svg>
