<svg width="44" height="44" viewBox="0 0 44 44" fill="none" xmlns="http://www.w3.org/2000/svg">
<path d="M0 10C0 4.47715 4.47715 0 10 0H34C39.5228 0 44 4.47715 44 10V34C44 39.5228 39.5228 44 34 44H10C4.47715 44 0 39.5228 0 34V10Z" fill="#E9F5E8"/>
<path d="M32 22C32 27.52 27.52 32 22 32C16.48 32 12 27.52 12 22C12 16.48 16.48 12 22 12C27.52 12 32 16.48 32 22Z" stroke="#4AA23D" stroke-width="1.5" stroke-linecap="round" stroke-linejoin="round"/>
<path d="M25.71 25.18L22.61 23.33C22.07 23.01 21.63 22.24 21.63 21.61V17.51" stroke="#4AA23D" stroke-width="1.5" stroke-linecap="round" stroke-linejoin="round"/>
</svg>
