<svg preserveAspectRatio="none" width="100%" height="100%" overflow="visible" style="display: block;" viewBox="0 0 2177.92 1836.71" fill="none" xmlns="http://www.w3.org/2000/svg">
<g id="Mask group" opacity="0.28">
<path id="Vector" d="M1616.37 1796.19L1615.78 1795.93C1607.69 1751.92 1600.43 1707.33 1593.2 1662.89C1569.32 1516.23 1545.71 1371.17 1493.29 1253.91C1372.42 983.54 1098.21 860.952 314.233 1206.86L313.585 1206.56C1098.31 860.241 1372.77 982.982 1493.77 1253.66C1546.22 1370.98 1569.83 1516.07 1593.71 1662.77C1600.97 1707.34 1608.25 1752.06 1616.37 1796.19M1636.54 1805.32L1635.93 1805.05C1623.94 1752.44 1613.26 1698.61 1602.58 1644.85C1572.97 1495.63 1543.45 1346.9 1486.29 1225.97C1352.22 942.388 1065.9 811.813 269.379 1186.56L268.744 1186.27C1065.99 811.103 1352.56 941.828 1486.77 1225.71C1543.96 1346.7 1573.49 1495.46 1603.11 1644.71C1613.8 1698.62 1624.51 1752.59 1636.54 1805.33L1636.54 1805.32ZM1660.3 1816.08L1659.66 1815.79C1643.08 1754.87 1628.37 1691.74 1613.63 1628.46C1578.08 1475.87 1542.34 1322.45 1479.64 1197.25C1331.29 900.972 1031.82 762.755 226.592 1167.19L225.967 1166.91C1031.89 762.036 1331.61 900.398 1480.11 1196.98C1542.83 1322.23 1578.58 1475.68 1614.14 1628.3C1628.92 1691.73 1643.66 1755.02 1660.3 1816.08ZM1687.67 1828.46L1687.01 1828.17C1665.23 1759.39 1645.93 1686.93 1626.51 1613.97C1584.7 1456.97 1542.25 1297.57 1473.04 1167.3C1309.32 859.119 995.607 713.988 185.933 1148.79L185.329 1148.52C995.662 713.267 1309.62 858.545 1473.51 1167.02C1542.74 1297.33 1585.19 1456.76 1627.01 1613.79C1646.49 1686.92 1665.83 1759.54 1687.67 1828.46L1687.67 1828.46ZM1711.99 1823.76L1711.66 1824.46C1686.74 1753.57 1664.23 1678.09 1641.43 1601.65C1592.9 1438.97 1543.08 1271.95 1466.09 1135.63C1285.96 816.672 956.91 665.801 147.5 1131.4L146.909 1131.13C956.949 665.077 1286.26 816.089 1466.55 1135.33C1543.57 1271.71 1593.4 1438.76 1641.93 1601.46C1664.68 1677.72 1687.14 1753.02 1711.98 1823.76L1711.99 1823.76ZM1727.33 1791.17L1727 1791.86C1703.44 1728.09 1681.23 1660.55 1658.65 1591.88C1602.8 1422.03 1544.68 1245.3 1458.3 1101.71C1260.81 773.443 915.422 618.515 111.384 1115.05L110.808 1114.78C915.445 617.788 1261.1 772.859 1458.75 1101.4C1545.16 1245.04 1603.29 1421.8 1659.15 1591.67C1681.67 1660.17 1703.83 1727.55 1727.32 1791.18L1727.33 1791.17ZM1742.71 1758.5L1742.39 1759.18C1720.84 1703.49 1699.87 1644.88 1678.49 1585.12C1614.54 1406.38 1546.89 1217.3 1449.08 1065.03C1233.4 729.278 870.904 572.503 77.6931 1099.8L77.1302 1099.54C870.901 571.779 1233.67 728.686 1449.52 1064.71C1547.37 1217.03 1615.03 1406.14 1678.99 1584.9C1700.31 1644.5 1721.22 1702.95 1742.71 1758.5L1742.71 1758.5ZM1758.12 1725.75L1757.81 1726.42C1739.06 1679.99 1720.4 1631.5 1701.34 1581.99C1628.38 1392.43 1549.59 1187.72 1437.76 1025.11C1203.2 684.053 823.203 528.181 46.5282 1085.7L45.9789 1085.45C823.185 527.454 1203.45 683.453 1438.19 1024.78C1550.05 1187.44 1628.86 1392.17 1701.83 1581.76C1720.83 1631.12 1739.43 1679.45 1758.12 1725.75ZM1773.57 1692.93L1773.26 1693.59C1758.27 1657.9 1743.13 1620.98 1727.69 1583.3C1644.72 1380.88 1552.7 1156.36 1423.59 981.532C1169.69 637.72 772.276 486.156 18.1013 1072.83L17.5622 1072.59C772.236 485.424 1169.93 637.113 1424.02 981.184C1553.16 1156.06 1645.2 1380.61 1728.18 1583.06C1743.56 1620.6 1758.63 1657.37 1773.57 1692.93L1773.57 1692.93ZM1789.06 1660.03L1788.75 1660.69C1778.71 1637.66 1768.53 1614.12 1758.18 1590.18C1664.24 1372.88 1556.29 1123.14 1405.79 933.991C1134.22 592.692 724.035 448.748 7.58906 1048.52L8.12188 1047.39C724.374 448.16 1134.57 592.247 1406.2 933.629C1556.74 1122.83 1664.71 1372.61 1758.66 1589.94C1768.95 1613.73 1779.07 1637.14 1789.06 1660.04L1789.06 1660.03ZM1804.57 1627.08L1804.26 1627.73C1800.76 1619.98 1797.24 1612.17 1793.69 1604.3C1688.1 1370.42 1560.7 1088.21 1383.53 882.334C1099.69 552.494 687.993 418.728 33.4767 993.526L34.0326 992.345C688.353 418.159 1100.04 552.053 1383.94 881.954C1561.15 1087.88 1688.57 1370.13 1794.17 1604.05C1797.66 1611.78 1801.13 1619.46 1804.57 1627.08ZM1820.11 1594.07L1819.81 1594.71C1704.89 1348.66 1557.53 1042.09 1356.01 826.543C1062.11 512.161 652.95 391.486 61.2523 934.521L61.8312 933.291C653.338 390.934 1062.46 511.732 1356.4 826.149C1557.87 1041.66 1705.21 1348.05 1820.11 1594.07ZM1835.67 1561L1835.37 1561.64C1712.27 1306.15 1544.87 984.705 1322.46 766.813C1021.62 472.091 620.053 366.963 91.2532 870.788L91.8642 869.49C620.479 366.418 1021.98 471.672 1322.83 766.405C1545.2 984.25 1712.57 1305.55 1835.67 1561.01L1835.67 1561ZM1851.26 1527.9L1850.96 1528.53C1706.39 1237.19 1492.19 859.187 1212.22 645.65C919.762 422.597 555.513 379.126 123.897 801.441L124.527 800.101C555.963 378.557 920.114 422.166 1212.55 645.203C1492.48 858.712 1706.67 1236.56 1851.26 1527.9ZM1866.87 1494.74L1866.57 1495.37C1717.23 1202.71 1485.55 821.708 1195.15 606.706C901.711 389.456 548.307 341.778 159.336 726.155L159.97 724.808C548.79 341.227 902.081 389.038 1195.48 606.255C1485.84 821.227 1717.49 1202.09 1866.87 1494.74ZM1882.49 1461.54L1882.2 1462.16C1728.53 1168.9 1480.12 786.048 1180.24 569.311C1063.32 484.811 938.586 425.565 808.598 406.735C678.623 387.905 543.392 409.491 405.471 486.642C336.633 525.15 267.126 577.502 197.267 645.576L197.896 644.24C267.463 576.593 336.684 524.514 405.239 486.167C543.271 408.956 678.617 387.354 808.699 406.195C938.768 425.039 1063.58 484.314 1180.56 568.86C1480.4 785.565 1728.77 1168.28 1882.49 1461.54L1882.49 1461.54ZM1898.14 1428.29L1897.85 1428.91C1732.01 1120.32 1448 711.582 1118.59 500.356C1005.6 427.905 887.276 378.694 766.551 364.743C645.841 350.793 522.728 372.097 400.153 440.66C345.504 471.232 290.96 511.203 236.786 561.624L237.384 560.352C291.287 510.307 345.554 470.6 399.925 440.186C522.604 371.56 645.824 350.241 766.643 364.203C887.442 378.165 1005.84 427.401 1118.88 499.889C1448.26 711.095 1732.24 1119.7 1898.14 1428.3L1898.14 1428.29ZM1913.81 1395.01L1913.52 1395.62C1791.65 1174.25 1602.18 900.856 1380.09 685.229C1214.14 524.11 1029.99 395.247 842.226 344.451C654.498 293.666 463.156 320.919 282.796 472.005C280.671 473.785 278.553 475.586 276.434 477.396L276.974 476.249C278.807 474.685 280.645 473.128 282.483 471.589C463 320.372 654.503 293.092 842.387 343.924C1030.23 394.745 1214.46 523.653 1380.46 684.823C1602.48 900.383 1791.91 1173.66 1913.81 1395.01L1913.81 1395.01ZM1929.49 1361.7L1929.21 1362.3C1797.56 1128.6 1583.07 836.415 1336.27 614.756C1168.23 463.841 985.217 345.628 803.192 300.848C635.321 259.558 468.286 280.727 314.601 396.315L315.077 395.304C468.696 280.111 635.607 259.056 803.344 300.322C985.455 345.122 1168.53 463.374 1336.63 614.337C1583.36 835.933 1797.8 1128.01 1929.49 1361.7ZM1945.19 1328.35L1944.91 1328.95C1803.11 1082.71 1561.08 770.976 1288.68 544.497C1119.67 403.991 938.992 296.304 763.335 257.463C619.104 225.573 478.265 240.116 350.051 321.007L350.469 320.12C478.628 239.521 619.364 225.063 763.479 256.928C939.215 295.787 1119.96 403.511 1289.02 544.068C1561.36 770.489 1803.34 1082.12 1945.19 1328.35L1945.19 1328.35ZM1960.9 1294.97L1960.62 1295.57C1808.47 1036.86 1536.6 705.219 1238.34 475.338C1069.43 345.15 892.061 247.602 723.215 214.435C603.212 190.86 487.512 199.829 382.205 252.701L382.571 251.924C487.837 199.243 603.447 190.344 723.349 213.896C892.272 247.075 1069.7 344.657 1238.67 474.889C1536.86 704.721 1808.69 1036.25 1960.9 1294.97ZM360.407 1227.75C1129.22 909.27 1392.47 1023.98 1501.34 1281.18C1549.66 1395.32 1567.58 1537.49 1585.82 1682.28C1590.29 1717.7 1594.77 1753.29 1599.73 1788.66L1599.15 1788.4C1594.22 1753.14 1589.75 1717.68 1585.3 1682.38C1567.06 1537.63 1549.15 1395.49 1500.86 1281.43C1392.11 1024.53 1129.12 909.973 361.068 1228.05L360.407 1227.75Z" fill="var(--fill-0, #20461D)"/>
<path id="Vector (Stroke)" fill-rule="evenodd" clip-rule="evenodd" d="M727.069 140.834C896.14 174.043 1073.67 271.694 1242.68 401.956C1540.94 631.846 1812.82 963.439 1965.07 1222.23L1965.25 1222.53L1964.27 1224.59L1963.62 1223.49C1811.51 964.838 1539.7 633.267 1241.51 403.444C1072.64 273.286 895.371 175.808 726.671 142.669C606.785 119.117 491.245 128.084 386.1 180.876L384.364 181.747L385.645 179.026L385.853 178.922C491.28 126.161 607.05 117.259 727.069 140.834ZM767.215 183.87C943.102 222.762 1123.95 330.561 1293.05 471.151C1565.45 697.63 1807.48 1009.32 1949.36 1255.61L1948.89 1255.88C1948.92 1255.93 1948.94 1255.97 1948.97 1256.02L1949.39 1256.21L1948.56 1257.99L1947.91 1256.86C1806.14 1010.68 1564.16 699.008 1291.83 472.588C1122.86 332.114 942.282 224.501 766.775 185.694C622.688 153.835 482.04 168.37 354.004 249.149L352.058 250.376L353.528 247.255L353.693 247.151C482.029 166.44 622.956 151.974 767.215 183.87ZM807.096 227.268C989.361 272.106 1172.54 390.439 1340.67 541.436C1587.47 763.09 1801.95 1055.23 1933.67 1288.96L1933.84 1289.26L1932.85 1291.35L1932.21 1290.21C1800.58 1056.56 1586.14 764.431 1339.4 542.829C1171.4 391.949 988.486 273.817 806.616 229.075C638.92 187.828 472.102 208.974 318.6 324.426L317.578 323.625L318.124 322.465L318.256 322.366C472.057 207.036 639.185 185.959 807.096 227.268ZM846.154 270.874C1034.16 321.738 1218.48 450.734 1384.52 611.941C1606.61 827.557 1796.07 1100.89 1917.99 1322.29L1917.51 1322.54C1917.54 1322.59 1917.56 1322.63 1917.59 1322.68L1918.01 1322.87L1917.16 1324.68L1916.52 1323.52C1794.67 1102.19 1605.24 828.855 1383.21 613.285C1217.3 452.202 1033.24 323.427 845.635 272.674C658.111 221.945 467.003 249.158 286.822 400.094C284.699 401.872 282.583 403.671 280.465 405.481L279.411 404.706L280.011 403.43L280.12 403.337C281.954 401.772 283.794 400.214 285.634 398.673C466.33 247.306 658.066 219.986 846.154 270.874ZM1901.84 1355.83L1902.33 1355.58C1736.41 1046.95 1452.36 638.222 1122.84 426.923C1009.73 354.396 891.24 305.111 770.31 291.134C649.348 277.155 525.985 298.502 403.179 367.198C348.756 397.642 294.447 437.381 240.509 487.459L240.415 487.546L239.762 488.933L240.838 489.689C294.978 439.3 349.479 399.363 404.075 368.82C526.525 300.327 649.493 279.052 770.06 292.985C890.654 306.921 1008.88 356.082 1121.81 428.495C1451.07 639.628 1735.02 1048.25 1900.85 1356.8L1901.48 1357.99L1902.34 1356.16L1901.92 1355.97C1901.89 1355.92 1901.87 1355.87 1901.84 1355.83ZM812.386 333.128C942.595 351.992 1067.51 411.325 1184.54 495.914C1484.51 712.714 1732.95 1095.54 1886.68 1388.83L1886.19 1389.07C1886.22 1389.12 1886.24 1389.16 1886.26 1389.21L1886.7 1389.4L1885.82 1391.25L1885.19 1390.05C1731.53 1096.81 1483.18 714.072 1183.43 497.43C1066.57 412.973 941.936 353.785 812.088 334.975C682.265 316.167 547.186 337.722 409.393 414.802C340.614 453.277 271.154 505.592 201.33 573.631L200.244 572.886L200.923 571.442L201.01 571.358C270.613 503.676 339.88 451.56 408.493 413.179C546.653 335.897 682.151 314.265 812.386 333.128ZM717.061 367.159C890.868 358.306 1052.69 424.646 1199.47 533.314C1489.97 748.386 1721.68 1129.37 1871.06 1422.03L1871.2 1422.31L1870.18 1424.48L1869.56 1423.25C1720.22 1130.6 1488.6 749.722 1198.33 534.82C1051.69 426.255 890.136 360.106 716.691 369.066C543.251 378.027 357.807 462.098 163.402 654.207L162.313 653.465L162.996 652.012L163.08 651.929C357.572 460.058 543.249 376.013 717.061 367.159ZM724.199 407.862C905.935 393.934 1070.24 460.681 1216.55 572.268C1496.62 785.881 1710.86 1163.86 1855.45 1455.19L1855.59 1455.48L1854.57 1457.66L1853.94 1456.4C1709.37 1165.07 1495.23 787.191 1215.39 573.758C1069.25 462.3 905.24 395.754 723.884 409.778C542.522 423.801 343.697 518.408 127.961 729.495L126.873 728.75L127.554 727.303L127.64 727.22C343.43 516.377 542.468 421.789 724.199 407.862ZM1838.97 1490.79L1838.35 1489.51C1715.25 1234.02 1547.89 912.668 1325.57 694.867C1175.22 547.577 999.782 447.737 795.928 447.592C592.071 447.448 359.64 547.003 95.3108 798.848L94.2297 798.097L94.8931 796.688L94.9831 796.602C359.361 544.999 592.051 445.425 796.349 445.696C1000.65 445.968 1176.4 546.087 1326.9 693.524C1549.36 911.46 1716.77 1232.85 1839.87 1488.31L1839.38 1488.54C1839.4 1488.58 1839.42 1488.63 1839.44 1488.67L1839.87 1488.87L1838.97 1490.79ZM824.298 485.355C1037.51 487.064 1213.45 596.004 1360.49 753.289C1562.04 968.884 1709.41 1275.38 1824.31 1521.38L1824.44 1521.66L1823.39 1523.88L1822.78 1522.57C1707.86 1276.51 1560.53 970.038 1359.1 754.576C1212.22 597.462 1036.62 488.833 823.887 487.248C611.14 485.662 361.086 591.13 65.3008 862.589L64.2287 861.83L64.8629 860.483L64.9592 860.395C360.777 589.157 611.094 483.646 824.298 485.355ZM851.491 525.043C1071.96 527.984 1246.02 644.082 1388.04 809.115C1565.33 1015.13 1692.78 1297.47 1798.37 1531.37C1801.86 1539.1 1805.33 1546.78 1808.77 1554.4L1808.9 1554.67L1807.84 1556.92L1807.24 1555.58C1803.74 1547.83 1800.21 1540.02 1796.66 1532.16C1691.07 1298.25 1563.7 1016.13 1386.61 810.346C1244.76 645.509 1071.04 529.756 851.086 526.938C631.11 524.119 364.716 634.256 37.5143 921.605L36.4531 920.836L37.0675 919.53L37.1714 919.439C364.389 632.296 631.049 522.102 851.491 525.043ZM1792.31 1589.9L1791.72 1588.53C1781.67 1565.5 1771.5 1541.96 1761.15 1518.02C1667.2 1300.7 1559.28 1051.05 1408.85 861.984C1273.13 691.424 1102.87 570.273 877.097 566.601C651.289 562.928 369.787 676.766 11.6146 976.61L10.5655 975.83L11.1603 974.567L11.2727 974.473C369.45 674.816 651.22 560.911 877.496 564.706C1103.81 568.501 1274.44 690.029 1410.32 860.809C1560.92 1050.08 1668.92 1299.92 1762.85 1517.22L1762.87 1517.26C1773.16 1541.06 1783.28 1564.46 1793.26 1587.36L1792.77 1587.57C1792.78 1587.61 1792.8 1587.66 1792.82 1587.7L1793.26 1587.9L1792.31 1589.9ZM1777.34 1620.59L1777.77 1620.79L1776.82 1622.82L1776.23 1621.42C1761.23 1585.73 1746.1 1548.81 1730.65 1511.13C1647.68 1308.7 1555.68 1084.26 1426.63 909.506C1299.75 737.695 1137.09 614.019 912.014 606.496C686.888 598.97 399.148 707.634 22.1081 1000.93L21.7834 1001.19L19.8739 1000.32L20.7316 999.656C398.116 706.038 686.364 597.055 912.12 604.599C1137.92 612.144 1301.04 736.253 1428.15 908.383C1557.34 1083.32 1649.4 1307.93 1732.37 1510.35L1732.39 1510.4C1747.57 1547.44 1762.45 1583.74 1777.2 1618.86L1777.31 1618.63L1777.81 1620.33L1777.81 1620.33L1777.3 1620.51C1777.31 1620.54 1777.32 1620.56 1777.34 1620.59ZM949.135 644.795C1170.98 656.727 1324.9 781.232 1442.34 951.994C1554.25 1114.73 1633.08 1319.54 1706.05 1509.11L1706.23 1509.59C1725.17 1558.78 1743.71 1606.95 1762.34 1653.09L1762.44 1653.36L1761.35 1655.68L1760.77 1654.25C1742.07 1607.94 1723.46 1559.59 1704.46 1510.22L1704.3 1509.81C1631.33 1320.23 1552.57 1115.6 1440.79 953.063C1323.58 782.636 1170.11 658.579 948.987 646.684C727.817 634.786 438.807 735.09 50.5143 1013.82L50.1942 1014.05L48.246 1013.16L49.169 1012.5C437.817 733.472 727.342 632.867 949.135 644.795ZM1746.62 1686.96L1745.91 1688.47L1745.34 1687C1723.8 1631.3 1702.82 1572.69 1681.45 1512.92C1617.49 1334.16 1549.86 1145.16 1452.1 992.971C1344.32 825.2 1199.95 702.248 983.499 687.017C766.992 671.781 478.223 764.311 81.6593 1027.93L81.3444 1028.14L79.353 1027.24L80.3402 1026.58C477.268 762.672 766.559 669.858 983.682 685.134C1200.86 700.414 1345.69 823.828 1453.68 991.947C1551.58 1144.34 1619.26 1333.52 1683.21 1512.27L1683.37 1512.71C1704.64 1572.16 1725.5 1630.45 1746.93 1685.85L1747.51 1687.37L1746.62 1686.96ZM1731.04 1718.72L1731.55 1718.54C1708.06 1654.92 1685.9 1587.56 1663.38 1519.06L1663.34 1518.95C1607.5 1349.12 1549.36 1172.33 1462.92 1028.65C1364.03 864.269 1228.03 743.18 1016.04 725.445C804.123 707.715 516.395 793.29 114.037 1041.81L112.987 1042.46L115.022 1043.38L115.332 1043.19C517.311 794.949 804.513 709.643 1015.83 727.323C1227.08 744.998 1362.63 865.612 1461.31 1029.63C1547.64 1173.15 1605.74 1349.8 1661.6 1519.67C1684.18 1588.33 1706.39 1655.89 1729.96 1719.67L1730.52 1721.18L1731.53 1719.04L1731.08 1718.84C1731.07 1718.8 1731.05 1718.76 1731.04 1718.72ZM1715.7 1751.31L1716.21 1751.14C1691.37 1680.41 1668.91 1605.12 1646.16 1528.86L1646.16 1528.85C1597.64 1366.17 1547.79 1199.05 1470.73 1062.6C1380.51 902.854 1252.95 785.103 1046.54 765.673C840.204 746.251 555.213 825.098 150.157 1058.14L149.045 1058.78L151.125 1059.73L151.429 1059.55C556.098 826.775 840.56 748.181 1046.3 767.549C1251.97 786.91 1379.1 904.178 1469.09 1063.53C1546.04 1199.78 1595.84 1366.72 1644.37 1529.42L1644.37 1529.42C1667.17 1605.86 1689.69 1681.35 1714.61 1752.26L1715.15 1753.81L1716.19 1751.62L1715.74 1751.42C1715.73 1751.38 1715.71 1751.35 1715.7 1751.31ZM1691.26 1756.05L1690.98 1756.65L1690.05 1756.23L1689.96 1755.95C1668.17 1687.15 1648.87 1614.69 1629.44 1541.72C1587.63 1384.7 1545.2 1225.39 1476.03 1095.19C1394.24 941.233 1275.05 828.096 1075.24 807.67C875.344 787.236 594.649 859.573 189.845 1076.96L189.547 1077.12L187.422 1076.15L188.594 1075.52C593.794 857.881 875.018 785.307 1075.5 805.8C1276.05 826.302 1395.68 939.93 1477.69 1094.3C1546.96 1224.67 1589.42 1384.13 1631.23 1541.11L1631.25 1541.21C1650.73 1614.35 1670.07 1686.95 1691.9 1755.85L1691.26 1756.05ZM1103.23 845.829C1297.76 866.914 1409.98 975.841 1484.31 1124.27C1547.06 1249.58 1582.82 1403.08 1618.37 1555.65L1618.47 1556.1C1633.23 1619.41 1647.94 1682.56 1664.54 1743.49L1664.91 1744.85L1662.68 1743.84L1662.6 1743.54C1646.01 1682.61 1631.3 1619.47 1616.56 1556.2C1581.01 1403.59 1545.28 1250.25 1482.63 1125.13C1408.52 977.134 1296.74 868.7 1102.96 847.697C909.098 826.683 633.071 893.163 230.487 1095.37L230.195 1095.51L228.016 1094.53L229.248 1093.91C632.241 891.455 908.799 824.753 1103.23 845.829ZM1640.12 1732.94L1639.85 1733.51L1638.93 1733.09L1638.86 1732.78C1626.88 1680.22 1616.21 1626.46 1605.55 1572.77L1605.51 1572.56C1575.9 1423.33 1546.39 1274.67 1489.27 1153.84C1455.78 1083 1412.8 1021.76 1354.76 975.579C1296.73 929.399 1223.6 898.246 1129.77 887.635C942.057 866.408 671.491 927.38 273.258 1114.74L272.972 1114.87L270.75 1113.87L272.041 1113.26C670.692 925.664 941.791 864.484 1130.06 885.777C1224.21 896.426 1297.65 927.702 1355.96 974.102C1414.26 1020.5 1457.39 1081.99 1490.97 1153.02C1548.2 1274.08 1577.73 1422.91 1607.35 1572.12L1607.39 1572.37C1618.08 1626.21 1628.78 1680.1 1640.79 1732.77L1640.12 1732.94ZM1619.96 1723.78L1620.62 1723.66C1612.5 1679.54 1605.22 1634.82 1597.97 1590.25L1597.97 1590.25C1574.09 1443.57 1550.46 1298.39 1497.97 1180.98C1467.69 1113.24 1427.8 1054.73 1372.68 1010.48C1317.57 966.234 1247.27 936.295 1156.24 925.667C974.223 904.416 709.287 960.375 316.897 1133.55L315.549 1134.14L317.818 1135.17L318.098 1135.05C710.062 962.105 974.468 906.34 1155.94 927.523C1246.65 938.113 1316.64 967.93 1371.48 1011.95C1426.33 1055.98 1466.07 1114.24 1496.26 1181.76C1548.64 1298.93 1572.24 1443.9 1596.12 1590.58C1603.35 1635.02 1610.61 1679.61 1618.7 1723.63L1618.77 1723.97L1619.68 1724.38L1619.96 1723.78ZM1389.27 1046.62C1441.38 1088.65 1478.31 1144.15 1505.55 1208.52C1553.91 1322.75 1571.84 1465.01 1590.08 1609.76L1590.08 1609.78C1594.54 1645.21 1599.03 1680.79 1603.98 1716.15L1604.15 1717.35L1602.12 1716.43L1602.07 1716.07C1597.14 1680.82 1592.67 1645.35 1588.22 1610.05C1569.97 1465.27 1552.07 1323.23 1503.83 1209.27C1476.67 1145.11 1439.9 1089.89 1388.06 1048.08C1336.22 1006.27 1269.27 977.849 1181.71 967.366C1006.54 946.396 748.918 997.216 364.919 1156.24L364.645 1156.36L362.328 1155.31L363.733 1154.73C748.165 995.478 1006.32 944.478 1182.02 965.517C1269.89 976.04 1337.16 1004.58 1389.27 1046.62Z" fill="url(#paint0_linear_0_41)"/>
</g>
<defs>
<linearGradient id="paint0_linear_0_41" x1="673.959" y1="703.357" x2="1678.29" y2="1193.84" gradientUnits="userSpaceOnUse">
<stop stop-color="#D4EBD2"/>
<stop offset="1" stop-color="#0FBA00"/>
</linearGradient>
</defs>
</svg>
